<svg width="107" height="17" viewBox="0 0 107 17" fill="none" xmlns="http://www.w3.org/2000/svg">
<path id="Vector" d="M86.9389 6.7438V17H90.4062V10.1625H103.087V17H106.554V6.7438H86.9389ZM90.0099 3.41873H103.384C105.266 3.09091 106.604 1.49862 107 0H86.394C86.7903 1.49862 88.1772 3.04408 90.0099 3.41873ZM76.3882 17C78.1219 16.2975 79.063 15.0799 79.4593 13.6749H63.8563V0.046832H60.3394V17H76.3882ZM34.3343 3.3719H46.7177C48.6 2.85675 50.1355 1.49862 50.5318 0.046832H30.9165V10.0689H46.9654V13.5813H34.3839C32.4025 14.0964 30.7184 15.3609 29.8763 17H50.4327V6.7438H34.3839L34.3343 3.3719ZM3.82173 3.41873H17.1958C19.078 3.09091 20.465 1.49862 20.8117 0H0.15625C0.552518 1.49862 1.93945 3.04408 3.82173 3.41873ZM3.82173 10.1157H17.1958C19.078 9.78788 20.465 8.19559 20.8117 6.69697H0.15625C0.552518 8.19559 1.93945 9.74105 3.82173 10.1157ZM3.82173 17H17.1958C19.078 16.6722 20.465 15.0799 20.8117 13.5813H0.15625C0.552518 15.0799 1.93945 16.6722 3.82173 17Z" fill="#E51837"/>
</svg>
